<svg width="64" height="64" viewBox="0 0 64 64" fill="none" xmlns="http://www.w3.org/2000/svg" role="img" aria-labelledby="title desc">
  <title id="title">QuoteWinBack favicon</title>
  <desc id="desc">A quote bubble with a return arrow.</desc>
  <rect width="64" height="64" rx="14" fill="#F5F7F8"/>
  <path d="M43 12C49.075 12 54 16.925 54 23V32C54 38.075 49.075 43 43 43H32L20 54V43H21C14.925 43 10 38.075 10 32V23C10 16.925 14.925 12 21 12H43Z" fill="#102820"/>
  <path d="M37 24H27C24.239 24 22 26.239 22 29C22 31.761 24.239 34 27 34H35" stroke="#FFFFFF" stroke-width="5" stroke-linecap="round"/>
  <path d="M33 44L45 34L33 24" stroke="#F2B84B" stroke-width="5" stroke-linecap="round" stroke-linejoin="round"/>
</svg>
