<svg xmlns="http://www.w3.org/2000/svg" width="1200" height="630" viewBox="0 0 1200 630">
  <defs><linearGradient id="b" x1="0" y1="0" x2="1" y2="1"><stop stop-color="#18220d"/><stop offset="1" stop-color="#26351a"/></linearGradient></defs>
  <rect width="1200" height="630" fill="url(#b)"/>
  <circle cx="1095" cy="46" r="230" fill="#d9ff73" opacity=".16"/>
  <circle cx="75" cy="650" r="190" fill="#52720d" opacity=".35"/>
  <text x="72" y="79" font-family="Arial" font-size="32" font-weight="900" fill="#ffffff">Let<tspan fill="#d9ff73">Due</tspan></text>
  <rect x="72" y="117" width="226" height="34" rx="17" fill="#d9ff73"/>
  <text x="91" y="140" font-family="Arial" font-size="14" font-weight="900" letter-spacing="1.3" fill="#18220d">NOW LIVE ON PRODUCT HUNT</text>
  <text x="72" y="239" font-family="Arial" font-size="68" font-weight="900" letter-spacing="-3" fill="#ffffff">
    <tspan x="72">Never miss another</tspan><tspan x="72" dy="72">landlord deadline.</tspan>
  </text>
  <text x="76" y="425" font-family="Arial" font-size="23" fill="#cbd4c5">
    Certificate storage, compliance dates and useful reminders
  </text>
  <text x="76" y="460" font-family="Arial" font-size="23" fill="#cbd4c5">
    for self-managing landlords in England.
  </text>
  <rect x="76" y="513" width="222" height="57" rx="12" fill="#d9ff73"/>
  <text x="112" y="550" font-family="Arial" font-size="19" font-weight="900" fill="#18220d">Try LetDue free →</text>
  <g transform="translate(885 230)">
    <rect width="222" height="250" rx="28" fill="#f4f5ef"/>
    <rect width="222" height="75" rx="28" fill="#d9ff73"/>
    <rect y="50" width="222" height="25" fill="#d9ff73"/>
    <rect x="46" y="-18" width="16" height="45" rx="8" fill="#f4f5ef"/>
    <rect x="160" y="-18" width="16" height="45" rx="8" fill="#f4f5ef"/>
    <circle cx="58" cy="119" r="10" fill="#52720d"/><rect x="83" y="110" width="80" height="18" rx="9" fill="#d5dbc9"/>
    <circle cx="58" cy="159" r="10" fill="#52720d"/><rect x="83" y="150" width="62" height="18" rx="9" fill="#d5dbc9"/>
    <circle cx="58" cy="199" r="10" fill="#52720d"/><rect x="83" y="190" width="90" height="18" rx="9" fill="#d5dbc9"/>
    <circle cx="188" cy="221" r="48" fill="#d9ff73" stroke="#18220d" stroke-width="9"/>
    <path d="M169 221l13 13 27-31" fill="none" stroke="#18220d" stroke-width="10" stroke-linecap="round" stroke-linejoin="round"/>
  </g>
</svg>
